Coordinates
version=1
nRows=15
nColumns=34
inDegrees=yes

Units are S.I. units (second, meters, Newtons, ...)
If the header above contains a line with 'inDegrees', this indicates whether rotational values are in degrees (yes) or radians (no).

endheader
time	pelvis_tilt	pelvis_list	pelvis_rotation	pelvis_tx	pelvis_ty	pelvis_tz	hip_flexion_r	hip_adduction_r	hip_rotation_r	knee_angle_r	ankle_angle_r	subtalar_angle_r	mtp_angle_r	hip_flexion_l	hip_adduction_l	hip_rotation_l	knee_angle_l	ankle_angle_l	subtalar_angle_l	mtp_angle_l	lumbar_extension	lumbar_bending	lumbar_rotation	arm_flex_r	arm_add_r	arm_rot_r	elbow_flex_r	pro_sup_r	arm_flex_l	arm_add_l	arm_rot_l	elbow_flex_l	pro_sup_l
      3.51666670	     -5.80478158	      1.35110377	     -2.30190757	      0.85450489	      1.14328360	     -0.16468496	      3.57522362	     -5.99898224	     -6.12736573	      4.76739490	      7.69774193	     -7.51979267	      0.00000000	      2.48015003	     -0.89162334	     -7.64241610	      3.34060091	      7.26291114	     -5.89324740	      0.00000000	      2.84494995	     -3.47852824	     -1.32441613	     -8.24730990	     -6.03361433	    -11.97815638	     33.44185369	     89.81743390	     -3.19524489	     -9.99406151	      2.76118203	     27.13083198	     88.68490339
      3.53333330	     -5.77787018	      1.36504947	     -2.34137769	      0.85469506	      1.14368673	     -0.16439831	      3.71025910	     -6.05950907	     -6.24573430	      4.91816142	      7.58339869	     -7.58347824	      0.00000000	      2.57503621	     -0.84801861	     -7.52016929	      3.44243090	      7.31166080	     -5.87633748	      0.00000000	      2.70282047	     -3.40440896	     -1.24120889	     -8.25036844	     -6.09082596	    -11.98987658	     33.41546978	     89.84444150	     -3.36435186	     -9.69812712	      2.79341400	     27.05772546	     88.71200215
      3.55000000	     -5.80012705	      1.33943269	     -2.33762471	      0.85443621	      1.14693206	     -0.16486597	      3.83900243	     -6.05601868	     -6.34915610	      5.01014470	      7.42598464	     -7.60387031	      0.00000000	      2.65295072	     -0.85865855	     -7.48543848	      3.45843345	      7.29111552	     -5.86693484	      0.00000000	      2.59520983	     -3.39205085	     -1.15965097	     -8.23599687	     -6.12029736	    -11.99637158	     33.40704995	     89.87013928	     -3.51219208	     -9.54071711	      2.79756740	     26.96727401	     88.73423903
      3.56666670	     -5.81921403	      1.33450356	     -2.35940832	      0.85464251	      1.14698085	     -0.16439956	      3.91197717	     -6.06279634	     -6.40666482	      5.06919569	      7.34366572	     -7.61036680	      0.00000000	      2.69432314	     -0.86870432	     -7.43352295	      3.49308112	      7.30167041	     -5.85747332	      0.00000000	      2.51362484	     -3.36856344	     -1.06022797	     -8.21768561	     -6.12945036	    -11.99784256	     33.40965481	     89.88883666	     -3.69978359	     -9.41074524	      2.80281727	     26.87358135	     88.75026893
      3.58333330	     -5.82821515	      1.31682847	     -2.35855776	      0.86281993	      1.14796346	     -0.16126326	      3.87998125	     -6.01959181	     -6.43475545	      5.14054582	      7.29135809	     -7.60330026	      0.00000000	      2.64881187	     -0.94175732	     -7.40359838	      3.57825486	      7.28962047	     -5.84720473	      0.00000000	      2.46275046	     -3.38238697	     -0.93119993	     -8.27370808	     -6.07926567	    -11.99133249	     33.38579654	     89.90094290	     -3.99836350	     -9.32626530	      2.80777410	     26.75693134	     88.75965510
      3.60000000	     -5.82016128	      1.19495441	     -2.56539400	      0.86292118	      1.14770998	     -0.16834884	      3.70602302	     -5.96618107	     -6.62590001	      5.04956292	      6.99422355	     -7.44335857	      0.00000000	      2.35026255	     -1.01534004	     -7.46881881	      3.33929414	      7.36772243	     -5.82732892	      0.00000000	      2.89363900	     -3.00298943	     -0.70378126	     -8.53365274	     -6.23730614	    -12.08635990	     33.20307468	     89.99006434	     -4.49394898	     -8.90927663	      2.67571457	     26.47276958	     88.81766645
      3.61666670	     -5.77694864	      1.19491213	     -2.66486809	      0.87059508	      1.14847545	     -0.16481844	      3.53724805	     -5.99618549	     -6.72742374	      5.13627988	      6.97354192	     -7.45920709	      0.00000000	      2.16528508	     -1.03874736	     -7.45635579	      3.52635950	      7.37583247	     -5.82810663	      0.00000000	      2.94759041	     -2.99490275	     -0.56177875	     -8.72826890	     -6.17563618	    -12.09216623	     33.12480629	     90.00439270	     -4.93375801	     -8.72215992	      2.67821526	     26.33208641	     88.82860764
      3.63333330	     -5.85295833	      1.12617985	     -2.99959826	      0.85474517	      1.14637342	     -0.16395165	      3.64530519	     -5.96337648	     -6.95847596	      5.12879328	      7.23676870	     -6.78932781	      0.00000000	      1.97369720	     -1.05064673	     -7.68882237	      3.18705276	      7.84370969	     -5.70599637	      0.00000000	      3.42367389	     -2.81165898	     -0.04605493	     -8.74519739	     -6.13874976	    -12.77287537	     32.65419971	     90.82521103	     -4.93987659	     -8.18010113	      0.81617892	     25.75306403	     89.33034255
      3.65000000	     -5.87350158	      1.10765386	     -3.03214920	      0.86238759	      1.14738056	     -0.16797852	      3.64538022	     -5.98991053	     -6.96366805	      5.13729090	      7.22966261	     -6.79325999	      0.00000000	      1.96407734	     -1.05255380	     -7.68289053	      3.20946351	      7.83770527	     -5.70349606	      0.00000000	      3.41211985	     -2.81207909	     -0.04008366	     -8.73050762	     -6.13298988	    -12.77211197	     32.65743713	     90.82628735	     -4.93729625	     -8.17811508	      0.81562485	     25.75458200	     89.33130004
      3.66666670	     -5.74806616	      1.13012897	     -3.21959434	      0.87125800	      1.14838102	     -0.16400424	      3.34942028	     -6.03401871	     -7.14868822	      5.02528833	      6.89669161	     -6.77170832	      0.00000000	      1.51080772	     -0.96928799	     -7.64005404	      2.95045273	      7.91697909	     -5.78780631	      0.00000000	      3.65579989	     -2.63239921	      0.13807605	     -8.98016338	     -6.24670231	    -12.85009712	     32.52754141	     90.87321157	     -5.47068909	     -7.86400753	      0.79107833	     25.73674142	     89.38183017
      3.68333330	     -5.76035233	      1.13512495	     -3.19654522	      0.86314874	      1.14445182	     -0.16033356	      3.32282864	     -6.00546370	     -7.15683913	      5.01666496	      6.90085439	     -6.77521228	      0.00000000	      1.49545344	     -0.95356201	     -7.63988232	      2.93687939	      7.92755854	     -5.79259400	      0.00000000	      3.66348886	     -2.62209510	      0.15210531	     -8.98616431	     -6.24752965	    -12.85073457	     32.52349372	     90.87434667	     -5.49261578	     -7.86412367	      0.78905864	     25.73259494	     89.38269792
      3.70000000	     -5.57746602	      0.91875969	     -3.00712379	      0.86328325	      1.14502345	     -0.16008642	      2.94138830	     -5.66901718	     -7.22471895	      4.72314890	      6.93654912	     -7.05291288	      0.00000000	      1.25322026	     -1.21223624	     -7.16320753	      2.89742377	      8.23212958	     -6.20183782	      0.00000000	      3.32411628	     -2.55928988	      0.59139024	     -8.90267613	     -6.07085282	    -13.02222367	     31.95142825	     91.08482334	     -5.31579096	     -7.97505985	      0.36719294	     26.21224210	     89.56167570
      3.71666670	     -5.61253852	      0.85906858	     -2.90517743	      0.86294470	      1.14803851	     -0.16058859	      2.93470309	     -5.53159136	     -7.14864467	      4.61855718	      7.09227121	     -7.08877763	      0.00000000	      1.30031275	     -1.30881621	     -7.12369926	      2.86421352	      8.25812785	     -6.22897683	      0.00000000	      3.26756280	     -2.55241616	      0.53174937	     -8.84702581	     -5.92849694	    -13.01884339	     31.90724126	     91.11547948	     -5.10683086	     -8.17699032	      0.28901699	     26.28763564	     89.58607466
      3.73333330	     -5.59536556	      0.80231313	     -2.63743438	      0.86297595	      1.14532244	     -0.16023426	      2.82458578	     -5.38800998	     -7.06195859	      4.39931575	      7.31386301	     -7.17060733	      0.00000000	      1.41071805	     -1.42326618	     -6.88872373	      2.94990886	      8.31593819	     -6.24321819	      0.00000000	      3.07825750	     -2.61338013	      0.49925506	     -8.75269843	     -5.77939749	    -13.04536221	     31.73295255	     91.17429251	     -4.81500616	     -8.35877851	      0.18165019	     26.44072919	     89.64517044
      3.75000000	     -5.64010411	      0.79395798	     -2.50494179	      0.86292761	      1.14533838	     -0.16078847	      2.81508800	     -5.32692748	     -7.03196472	      4.23163278	      7.37551717	     -7.17253614	      0.00000000	      1.47196726	     -1.45360511	     -6.84711420	      2.82749042	      8.35319989	     -6.26434137	      0.00000000	      3.04622780	     -2.61416484	      0.44492042	     -8.62004106	     -5.71491496	    -13.04815051	     31.70036653	     91.19697939	     -4.53590228	     -8.44307082	      0.13980055	     26.55515349	     89.66757800
